<svg xmlns="http://www.w3.org/2000/svg" viewBox="0 0 100 100"><g data-name="Слой 2"><path d="M50 0a50 50 0 1 0 50 50A50 50 0 0 0 50 0zm0 8.16a41.84 41.84 0 0 1 39.11 27c-.06 2.24-.67 4.8-3 5.48-10 3.83-18.26-4.4-36.63-4.65-18.37.25-26.6 8.48-36.54 4.65a4.14 4.14 0 0 1-2.74-3.54A41.86 41.86 0 0 1 50 8.16zm11 45.41a11 11 0 1 1-11-11 11 11 0 0 1 11 11zm-40.07 23c-1.28.58-2.65.08-3.93-.86a41.64 41.64 0 0 1-8.6-21.3c1.13-1.16 2.91-1.64 5.37-.84C19.34 55.38 26.51 74 20.9 76.53zm44 12.25a4.05 4.05 0 0 0-.75.6 41.86 41.86 0 0 1-30.07-.69C28.47 84.9 31 81.6 33.8 76.79s15.69-3.32 15.69-3.32 13-1.53 15.77 3.32 5.42 8.21-.36 11.99zm20.4-16.42c-1.85 2.36-4.62 5.25-7.1 4.13-5.61-2.55 1.57-21.15 7.14-23 3.08-1 5.09 0 6.11 1.84a41.59 41.59 0 0 1-6.15 17.03z" fill="#e50000" data-name="Слой 1"/></g></svg>